<svg id="medium" xmlns="http://www.w3.org/2000/svg" width="23" height="33" viewBox="0 0 23 33">
  <metadata><?xpacket begin="﻿" id="W5M0MpCehiHzreSzNTczkc9d"?>
<x:xmpmeta xmlns:x="adobe:ns:meta/" x:xmptk="Adobe XMP Core 5.6-c138 79.159824, 2016/09/14-01:09:01        ">
   <rdf:RDF xmlns:rdf="http://www.w3.org/1999/02/22-rdf-syntax-ns#">
      <rdf:Description rdf:about=""/>
   </rdf:RDF>
</x:xmpmeta>
                                                                                                    
                                                                                                    
                                                                                                    
                                                                                                    
                                                                                                    
                                                                                                    
                                                                                                    
                                                                                                    
                                                                                                    
                                                                                                    
                                                                                                    
                                                                                                    
                                                                                                    
                                                                                                    
                                                                                                    
                                                                                                    
                                                                                                    
                                                                                                    
                                                                                                    
                                                                                                    
                           
<?xpacket end="w"?></metadata>
<defs>
    <style>
      .cls-1 {
        fill: #fff;
        stroke: #b4b4b4;
        stroke-linejoin: round;
        stroke-width: 1px;
      }

      .cls-1, .cls-2 {
        fill-rule: evenodd;
      }

      .cls-2 {
        fill: #ffcb15;
      }
    </style>
  </defs>
  <path id="流量_拷贝" data-name="流量 拷贝" class="cls-1" d="M518.2,291.087h0Zm7.759-13.579h0Zm7.759,13.579h0Zm-7.759-13.579h0Zm7.759,12.071L525.954,276s-6.212,10.87-7.759,13.579a8.952,8.952,0,1,0,15.518,0h0Zm-7.759,10.551a5.461,5.461,0,0,1-1.328-.151,9.057,9.057,0,0,0,7.147-7.224,5.628,5.628,0,0,1,.149,1.342,6,6,0,0,1-5.968,6.033h0Z" transform="translate(-514.5 -273.5)"/>
  <path id="流量" class="cls-2" d="M520.24,286h11.428l2.045,3.579a8.953,8.953,0,1,1-15.518,0Zm5.714,14.13a6,6,0,0,0,5.968-6.033,5.628,5.628,0,0,0-.149-1.342,9.057,9.057,0,0,1-7.147,7.224A5.461,5.461,0,0,0,525.954,300.13Z" transform="translate(-514.5 -273.5)"/>
</svg>
