<svg id="consumption" xmlns="http://www.w3.org/2000/svg" width="101.531" height="101.53" viewBox="0 0 101.531 101.53">
  <defs>
    <style>
      .cls-1 {
        fill: #ff7043;
      }

      .cls-2 {
        fill: #fff;
        fill-rule: evenodd;
      }
    </style>
  </defs>
  <circle id="椭圆_1" data-name="椭圆 1" class="cls-1" cx="50.765" cy="50.765" r="50.765"/>
  <path id="形状_608" data-name="形状 608" class="cls-2" d="M628.082,1183.62a10.95,10.95,0,1,0-10.991-10.95,10.988,10.988,0,0,0,10.991,10.95h0Zm0-18.38a7.425,7.425,0,1,1-7.453,7.43,7.448,7.448,0,0,1,7.453-7.43h0Zm-3.988,7.43-0.008-.24a0.824,0.824,0,0,1,.019-0.21,0.884,0.884,0,1,0-1.736-.34,2.244,2.244,0,0,0-.05.61v0.18a0.888,0.888,0,0,0,1.775,0h0Zm-0.061-1.82a0.882,0.882,0,0,0,.732-0.39,3.983,3.983,0,0,1,3.317-1.77,0.88,0.88,0,1,0,0-1.76,5.773,5.773,0,0,0-4.79,2.54,0.888,0.888,0,0,0,.741,1.38h0Zm28.842,12.77a10.95,10.95,0,1,0-10.994-10.95,10.992,10.992,0,0,0,10.994,10.95h0Zm0-18.38a7.425,7.425,0,1,1-7.457,7.43,7.448,7.448,0,0,1,7.457-7.43h0Zm-4.053,5.61a0.883,0.883,0,0,0,.733-0.39,3.988,3.988,0,0,1,3.32-1.77,0.88,0.88,0,0,0,0-1.76,5.764,5.764,0,0,0-4.789,2.54,0.889,0.889,0,0,0,.24,1.23,0.915,0.915,0,0,0,.5.15h0Zm23.348,47.56h0Zm1.942-30.88a2.9,2.9,0,0,0-2.183-.92,5.623,5.623,0,0,0-2.427.65c-2.782,1.48-6.766,3.57-9.368,4.92l0.045-.67c0-.03.008-0.17,0.008-0.21a6.343,6.343,0,0,0-6.14-6.4h-32.88c-3.332,0-6.243,3.26-6.243,6.69v23.05c0,3.3,2.8,5.53,6.243,5.53h32.876a5.863,5.863,0,0,0,6.133-5.77l-0.092-1.44c2.351,1.17,6.01,3.06,9.4,4.84a2.444,2.444,0,0,0,.29.12,8.315,8.315,0,0,0,2.362.48,2.891,2.891,0,0,0,2.4-1.14,3.982,3.982,0,0,0,.591-2.45V1191a4.641,4.641,0,0,0-1.015-3.47h0Zm-2.415,27.25c-0.245-.06-0.516-0.14-0.706-0.19-11.907-6.26-12.323-6.26-12.842-6.26a1.747,1.747,0,0,0-1.293.54,1.635,1.635,0,0,0-.477,1.27l0.259,4.26a2.379,2.379,0,0,1-2.6,2.25H621.167c-1.508,0-2.7-.64-2.7-2.01v-23.05c0-1.49,1.316-3.17,2.7-3.17h32.876a2.856,2.856,0,0,1,2.6,2.82l-0.26,3.81a1.77,1.77,0,0,0,1.771,1.89c0.572,0,.729,0,12.956-6.52a4.721,4.721,0,0,1,.557-0.22,6.545,6.545,0,0,1,.031.74v23.84h0Zm-11.514-.43c0,0.02,0,.04,0,0.05v0.03c0,0.04,0-.12,0-0.08h0Zm-29.216-24.16h-7.518c-1.782,0-3.213,2.18-3.213,3.81v4.49a0.885,0.885,0,0,0,1.77,0V1194c0-.81.79-2.05,1.439-2.05h7.522a0.88,0.88,0,1,0,0-1.76h0Zm4.426,0h-0.885a0.88,0.88,0,1,0,0,1.76h0.885a0.88,0.88,0,1,0,0-1.76h0Z" transform="translate(-592.469 -1143.81)"/>
</svg>
