<svg id="recharge_拷贝" data-name="recharge 拷贝" xmlns="http://www.w3.org/2000/svg" width="101.531" height="101.53" viewBox="0 0 101.531 101.53">
  <defs>
    <style>
      .cls-1 {
        fill: #ffa726;
      }

      .cls-2 {
        fill: #fff;
        fill-rule: evenodd;
      }
    </style>
  </defs>
  <circle id="椭圆_1" data-name="椭圆 1" class="cls-1" cx="50.766" cy="50.765" r="50.766"/>
  <path id="形状_607" data-name="形状 607" class="cls-2" d="M136.541,964.726a27.727,27.727,0,0,0-14.825-9.426,13.978,13.978,0,0,0-24.914,0,27.475,27.475,0,0,0-14.826,9.426,27.039,27.039,0,0,0,21.229,44.034h12.019a27.2,27.2,0,0,0,27.239-27.1,26.569,26.569,0,0,0-5.922-16.932h0ZM109.259,952.07a9.561,9.561,0,0,1,9.562,9.514,9.11,9.11,0,0,1-.395,2.662H100.047a9.112,9.112,0,0,1-.394-2.662,9.627,9.627,0,0,1,9.606-9.514h0Zm6.009,52.37H103.249A22.714,22.714,0,0,1,95.4,960.362a12.208,12.208,0,0,0-.044,1.265,13.377,13.377,0,0,0,.263,2.663H93.556a2.182,2.182,0,1,0,0,4.364h31.494a2.182,2.182,0,1,0,0-4.364h-2.061a13.406,13.406,0,0,0,.263-2.663c0-.436-0.044-0.829-0.044-1.265a22.714,22.714,0,0,1-7.939,44.078h0ZM111.5,983.928v2.793h6.1a2.182,2.182,0,1,1,0,4.364h-6.1v7.069a2.194,2.194,0,0,1-4.387,0v-7.069h-6.1a2.182,2.182,0,1,1,0-4.364h6.1v-2.793h-6.1a2.182,2.182,0,1,1,0-4.364h2.72l-2.764-3.186a2.2,2.2,0,0,1,.22-3.1,2.225,2.225,0,0,1,3.114.218l5.088,5.847,4.957-5.847a2.173,2.173,0,0,1,3.07-.262,2.148,2.148,0,0,1,.263,3.055l-2.719,3.229h2.631a2.182,2.182,0,1,1,0,4.364h-6.1v0.044h0Z" transform="translate(-58 -927)"/>
</svg>
