<svg id="hot" xmlns="http://www.w3.org/2000/svg" width="113" height="113" viewBox="0 0 113 113">
  <metadata><?xpacket begin="﻿" id="W5M0MpCehiHzreSzNTczkc9d"?>
<x:xmpmeta xmlns:x="adobe:ns:meta/" x:xmptk="Adobe XMP Core 5.6-c138 79.159824, 2016/09/14-01:09:01        ">
   <rdf:RDF xmlns:rdf="http://www.w3.org/1999/02/22-rdf-syntax-ns#">
      <rdf:Description rdf:about=""/>
   </rdf:RDF>
</x:xmpmeta>
                                                                                                    
                                                                                                    
                                                                                                    
                                                                                                    
                                                                                                    
                                                                                                    
                                                                                                    
                                                                                                    
                                                                                                    
                                                                                                    
                                                                                                    
                                                                                                    
                                                                                                    
                                                                                                    
                                                                                                    
                                                                                                    
                                                                                                    
                                                                                                    
                                                                                                    
                                                                                                    
                           
<?xpacket end="w"?></metadata>
<defs>
    <style>
      .cls-1 {
        fill: #9ccc65;
      }

      .cls-2 {
        fill: #fff;
        fill-rule: evenodd;
      }
    </style>
  </defs>
  <circle id="椭圆_1" data-name="椭圆 1" class="cls-1" cx="56.5" cy="56.5" r="56.5"/>
  <path id="形状_605" data-name="形状 605" class="cls-2" d="M347.2,779.5a3.6,3.6,0,1,1-3.6-3.625,3.613,3.613,0,0,1,3.6,3.625h0Zm32.4-10.875A3.6,3.6,0,1,1,376,765a3.613,3.613,0,0,1,3.6,3.625h0ZM412,779.5a3.6,3.6,0,1,1-3.6-3.625A3.613,3.613,0,0,1,412,779.5h0Zm-64.8,4.531,14.4,10.259L376,774.57,390.4,795.2,404.8,784l-7.2,32.951H354.4l-7.2-32.915h0Zm7.2,37.157a1.807,1.807,0,0,1,1.8-1.813h39.6a1.813,1.813,0,0,1,0,3.625H356.2a1.842,1.842,0,0,1-1.8-1.812h0Z" transform="translate(-319 -738)"/>
</svg>
