<svg id="return" xmlns="http://www.w3.org/2000/svg" width="70" height="70" viewBox="0 0 70 70">
  <metadata><?xpacket begin="﻿" id="W5M0MpCehiHzreSzNTczkc9d"?>
<x:xmpmeta xmlns:x="adobe:ns:meta/" x:xmptk="Adobe XMP Core 5.6-c138 79.159824, 2016/09/14-01:09:01        ">
   <rdf:RDF xmlns:rdf="http://www.w3.org/1999/02/22-rdf-syntax-ns#">
      <rdf:Description rdf:about=""/>
   </rdf:RDF>
</x:xmpmeta>
                                                                                                    
                                                                                                    
                                                                                                    
                                                                                                    
                                                                                                    
                                                                                                    
                                                                                                    
                                                                                                    
                                                                                                    
                                                                                                    
                                                                                                    
                                                                                                    
                                                                                                    
                                                                                                    
                                                                                                    
                                                                                                    
                                                                                                    
                                                                                                    
                                                                                                    
                                                                                                    
                           
<?xpacket end="w"?></metadata>
<defs>
    <style>
      .cls-1 {
        fill: #fff;
        fill-rule: evenodd;
      }
    </style>
  </defs>
  <path id="形状_600" data-name="形状 600" class="cls-1" d="M98.248,92.376A35.109,35.109,0,1,0,101,106a34.884,34.884,0,0,0-2.751-13.623h0ZM66.064,110.069A12.427,12.427,0,1,1,78.493,97.641a12.441,12.441,0,0,1-12.429,12.428h0Zm-13.409,8.179a21.486,21.486,0,0,1,26.688-.01,21.6,21.6,0,0,1,7.453,11.42,31.456,31.456,0,0,1-41.584.006,21.6,21.6,0,0,1,7.443-11.416h0ZM81.517,115.5a24.889,24.889,0,0,0-7.157-3.967c-0.1-.037-0.208-0.073-0.314-0.109a15.922,15.922,0,1,0-16.008-.025c-0.134.045-.267,0.091-0.4,0.137a24.9,24.9,0,0,0-7.163,3.976,25.316,25.316,0,0,0-8.071,11.36,31.522,31.522,0,1,1,47.193-.007A25.311,25.311,0,0,0,81.517,115.5h0Z" transform="translate(-31 -71)"/>
</svg>
